HIERARCHY
ROOT Hips
{
  OFFSET 43.0842 91.1655 101.099
  CHANNELS 6 Xposition Yposition Zposition Zrotation Xrotation Yrotation
  JOINT LeftUpLeg
  {
    OFFSET 8.64259 1.95398 -2.38835
    CHANNELS 3 Zrotation Xrotation Yrotation
    JOINT LeftLeg
    {
      OFFSET 43.7702 0 0
      CHANNELS 3 Zrotation Xrotation Yrotation
      JOINT LeftFoot
      {
        OFFSET 40.6238 0 0
        CHANNELS 3 Zrotation Xrotation Yrotation
        JOINT LeftToeBase
        {
          OFFSET 12.7242 0 0
          CHANNELS 3 Zrotation Xrotation Yrotation
          End Site
          {
            OFFSET 0 0 0
          }
        }
      }
    }
  }
  JOINT RightUpLeg
  {
    OFFSET -8.2249 1.95398 -2.59336
    CHANNELS 3 Zrotation Xrotation Yrotation
    JOINT RightLeg
    {
      OFFSET 43.5653 0 0
      CHANNELS 3 Zrotation Xrotation Yrotation
      JOINT RightFoot
      {
        OFFSET 40.6238 0 0
        CHANNELS 3 Zrotation Xrotation Yrotation
        JOINT RightToeBase
        {
          OFFSET 12.7242 0 0
          CHANNELS 3 Zrotation Xrotation Yrotation
          End Site
          {
            OFFSET 0 0 0
          }
        }
      }
    }
  }
  JOINT Spine
  {
    OFFSET 0.165834 0.87714 6.61349
    CHANNELS 3 Zrotation Xrotation Yrotation
    JOINT Spine1
    {
      OFFSET 7.38963 1.71661e-005 0
      CHANNELS 3 Zrotation Xrotation Yrotation
      JOINT Spine2
      {
        OFFSET 11.9445 1.14441e-005 0
        CHANNELS 3 Zrotation Xrotation Yrotation
        JOINT Spine3
        {
          OFFSET 14.7254 4.19617e-005 0
          CHANNELS 3 Zrotation Xrotation Yrotation
          JOINT Spine4
          {
            OFFSET 10.9679 0 0
            CHANNELS 3 Zrotation Xrotation Yrotation
            JOINT RightShoulder
            {
              OFFSET 2.46616 -1.6653 3.69651
              CHANNELS 3 Zrotation Xrotation Yrotation
              JOINT RightArm
              {
                OFFSET 13.0012 0 0
                CHANNELS 3 Zrotation Xrotation Yrotation
                JOINT RightForeArm
                {
                  OFFSET 28.7848 1.52588e-005 0
                  CHANNELS 3 Zrotation Xrotation Yrotation
                  JOINT RightHand
                  {
                    OFFSET 26.5688 1.52588e-005 0
                    CHANNELS 3 Zrotation Xrotation Yrotation
                    End Site
                    {
                      OFFSET 0 0 0
                    }
                  }
                }
              }
            }
            JOINT LeftShoulder
            {
              OFFSET 2.38034 -1.29275 -3.7523
              CHANNELS 3 Zrotation Xrotation Yrotation
              JOINT LeftArm
              {
                OFFSET 16.3182 6.10351e-005 0
                CHANNELS 3 Zrotation Xrotation Yrotation
                JOINT LeftForeArm
                {
                  OFFSET 27.0901 0 0
                  CHANNELS 3 Zrotation Xrotation Yrotation
                  JOINT LeftHand
                  {
                    OFFSET 24.5451 1.52588e-005 0
                    CHANNELS 3 Zrotation Xrotation Yrotation
                    End Site
                    {
                      OFFSET 0 0 0
                    }
                  }
                }
              }
            }
            JOINT Neck
            {
              OFFSET 5.0226 -0.0266342 0
              CHANNELS 3 Zrotation Xrotation Yrotation
              JOINT Head
              {
                OFFSET 6.69364 2.86102e-005 0
                CHANNELS 3 Zrotation Xrotation Yrotation
                End Site
                {
                  OFFSET 0 0 0
                }
              }
            }
          }
        }
      }
    }
  }
}
MOTION
Frames:	17
Frame Time:	0.0333333
86.2178 91.2899 38.5434 -94.2499 -51.3525 -94.9299 -173.192 20.125 98.9109 -24.8325 17.6328 -3.74463 59.1159 -4.14121 7.7896 29.2313 -3.074 5.58022 170.31 5.51828 84.2904 -28.0189 1.96419 -0.868673 73.4043 -12.3405 -7.06095 40.5411 -5.62912 -3.57075 0.753623 7.82296 -89.6004 11.2237 1.68578 0.629396 -0.44632 1.71185 0.554567 -22.9869 1.41867 1.107 -2.97425 1.41868 1.10701 94.8831 -44.3831 -94.1505 25.3777 -17.3051 -57.6741 -6.47913 -11.321 -119.516 -17.4425 -3.89947 13.7396 -102.031 -56.1876 63.4047 -4.15594 -61.0161 -15.4296 -4.66887 25.4146 -109.709 14.2778 1.28737 4.14169 -23.5904 13.2542 11.5805 -1.52801 14.5928 13.9204 
86.4147 91.3131 38.6306 -93.9691 -50.6945 -95.1828 -173.161 19.8957 98.442 -24.5383 16.471 -3.95235 59.1893 -4.14488 7.79248 29.0275 -3.19958 5.33853 170.092 5.90201 83.7253 -27.9583 2.3165 -0.980064 73.7359 -12.7616 -8.81792 41.2844 -5.96133 -3.99419 0.713649 7.78847 -89.6625 11.294 1.57741 0.515393 -0.376076 1.59858 0.445439 -22.9164 1.34959 0.965701 -2.90376 1.3496 0.965698 94.4528 -41.9324 -95.3021 28.1632 -17.6047 -57.4637 -6.45856 -12.4232 -119.295 -16.392 -3.47991 13.645 -103.988 -58.0905 61.4772 -0.0444316 -61.3303 -12.7498 -5.4868 24.523 -110.409 14.8704 1.37619 4.43784 -25.066 12.8095 16.6347 0.19391 14.8036 10.5335 
86.5851 91.2208 38.7 -93.9784 -50.201 -95.3839 -172.957 19.9431 98.291 -24.8996 16.807 -4.21656 59.3555 -4.03471 8.4066 29.3165 -3.06412 5.74269 169.737 6.2897 83.0979 -28.5501 2.85954 -0.937729 73.774 -12.8508 -10.2372 40.3463 -5.17683 -5.00536 0.684093 7.78157 -89.7244 11.3086 1.48974 0.400311 -0.361529 1.50592 0.334343 -22.9017 1.30055 0.829596 -2.88905 1.30055 0.829601 94.1906 -39.6856 -96.1766 30.1252 -18.2906 -58.15 -6.6209 -12.8969 -119.078 -16.5465 -3.54433 13.787 -104.981 -59.1527 60.5667 1.15599 -61.1614 -11.6259 -6.06881 23.3513 -111.345 14.5137 1.2842 4.8135 -25.4467 12.7308 20.8704 0.973203 15.0836 7.45617 
86.657 91.2275 38.7003 -94.1529 -50.3647 -95.4785 -172.615 19.9513 98.2368 -24.8437 17.6909 -4.23005 59.0606 -3.8829 8.90645 29.6064 -2.88693 6.09327 169.32 6.66178 82.689 -29.3259 0.618884 -0.547631 72.5503 -10.7484 -11.6207 37.7883 -4.28789 -2.66723 0.755374 7.75168 -89.679 11.3678 1.65284 0.473313 -0.30215 1.67209 0.400081 -22.8433 1.43417 0.94825 -2.83068 1.43418 0.948259 94.2709 -41.1453 -95.7583 28.7062 -18.1037 -58.6103 -5.75089 -13.0464 -119.366 -17.6983 -3.98938 13.3904 -104.159 -58.4752 61.3929 -0.55996 -60.265 -12.8487 -5.9514 23.5025 -111.558 13.507 1.09636 4.80757 -25.3776 13.0071 18.5617 0.0538485 15.1546 9.16821 
86.6112 91.0428 38.6425 -94.5022 -50.7509 -95.8958 -172.587 20.3807 98.0946 -25.8096 17.3966 -4.22647 59.2468 -3.56993 8.45318 29.823 -2.76671 6.37532 169.385 6.71029 82.6406 -29.8144 1.45606 -0.738826 72.266 -10.4864 -11.031 38.0339 -4.90823 -0.73198 0.70279 7.79358 -89.724 11.2846 1.52723 0.397675 -0.385511 1.54327 0.330043 -22.926 1.33709 0.838344 -2.91335 1.33709 0.838346 94.4909 -39.9367 -95.6002 28.5732 -18.6352 -59.4683 -5.99416 -12.844 -119.264 -17.0354 -3.71763 12.8915 -104.725 -59.0395 60.8591 -0.226209 -59.8012 -11.8839 -5.81315 22.6445 -112.757 12.8353 0.970638 4.80075 -24.8173 13.4509 20.4158 -0.326591 15.576 7.84457 
86.5524 91.0169 38.6414 -95.0004 -50.8778 -96.5057 -172.714 20.1991 97.8682 -26.1646 17.1985 -4.07302 59.1275 -3.73891 8.02052 30.0627 -2.6482 6.71097 169.074 6.41427 82.2818 -29.7156 1.47727 -0.701446 72.2358 -10.5171 -10.8914 38.6933 -5.48095 0.134318 0.756566 7.78528 -89.6343 11.3001 1.67598 0.561213 -0.369808 1.69905 0.486876 -22.9107 1.42982 1.03903 -2.89807 1.42981 1.03903 94.455 -41.6459 -95.348 26.7943 -18.6431 -58.9065 -5.45599 -12.5497 -119.711 -17.1632 -3.76274 12.7411 -103.566 -58.3636 62.1349 -1.49417 -58.984 -12.1934 -5.682 23.0708 -112.817 13.2354 1.04834 4.76836 -24.9829 13.8211 17.5174 -1.15945 15.7423 9.96012 
86.4439 91.1105 38.6697 -95.1558 -50.9684 -96.5757 -172.738 19.978 97.8839 -25.9779 16.9484 -3.93119 58.977 -3.77486 7.49612 30.1578 -2.79826 7.12851 168.75 6.07439 82.1381 -29.394 0.626013 -0.429379 72.109 -10.2482 -11.1122 38.7896 -5.53998 0.166221 0.754613 7.76372 -89.6253 11.3427 1.67637 0.578448 -0.327289 1.70021 0.504079 -22.8681 1.42503 1.05559 -2.85545 1.42503 1.05559 94.4313 -41.6921 -95.3777 26.3768 -19.4187 -58.2345 -5.96647 -11.9225 -120.12 -17.0898 -3.75321 13.5126 -104.317 -58.7232 61.2773 0.48744 -58.996 -9.78221 -6.35953 23.1701 -113.138 13.6402 1.14139 4.54093 -25.3517 13.8661 17.2924 -1.10047 15.855 10.2209 
86.2644 91.0898 38.6637 -95.3096 -50.9519 -96.5535 -172.758 19.9918 98.0808 -26.2703 16.2668 -3.81722 59.0625 -3.7049 7.128 30.2143 -2.68997 7.09281 168.773 5.72199 82.4046 -29.0813 1.87642 -0.45611 72.305 -10.5877 -10.3973 39.0396 -5.7142 0.339523 0.757727 7.75937 -89.6252 11.3514 1.68259 0.577742 -0.318549 1.70637 0.503106 -22.8594 1.43114 1.05678 -2.84676 1.43116 1.05679 94.3739 -41.6195 -95.4896 25.8781 -19.6838 -58.0522 -5.70897 -11.737 -119.725 -17.1302 -3.76173 13.2093 -104.384 -58.7767 61.2088 0.978806 -58.4113 -8.51651 -6.53345 22.6882 -113.556 13.8374 1.20145 4.22407 -25.4284 13.7829 17.6423 -0.815995 15.826 9.86213 
86.0444 91.1417 38.6973 -95.3374 -50.9233 -96.5418 -172.676 19.8266 98.1631 -26.1787 16.4827 -3.72102 58.8809 -3.70337 7.00596 30.3609 -2.7488 7.48991 168.518 5.62814 82.2926 -29.1921 0.959536 -0.178569 72.3278 -10.326 -10.6662 38.7245 -5.46145 -0.0139871 0.758606 7.74765 -89.6139 11.3746 1.68982 0.599182 -0.295358 1.71454 0.5242 -22.8362 1.43161 1.07941 -2.8235 1.43162 1.07941 94.2678 -41.3066 -95.7307 25.8551 -19.9228 -57.8357 -6.67201 -11.4331 -119.71 -17.3809 -3.85292 12.93 -103.855 -58.8008 61.9124 0.548841 -58.1967 -8.29123 -5.8976 22.5013 -113.948 13.796 1.19792 4.1727 -25.4336 13.5605 18.2544 -0.361196 15.6701 9.26067 
85.8703 91.0536 38.7727 -95.301 -50.876 -96.3505 -172.548 20.119 98.3977 -26.8702 17.1243 -3.72946 59.0926 -3.36031 7.26108 30.4398 -2.8934 7.86436 168.665 5.37778 82.5651 -29.033 1.62444 -0.265964 72.7232 -10.757 -10.2632 38.3991 -5.14016 -0.610078 0.790456 7.75561 -89.5974 11.3583 1.76088 0.625288 -0.311529 1.7867 0.547162 -22.8528 1.49155 1.12569 -2.84015 1.49154 1.12567 94.3559 -41.4422 -95.5535 26.0833 -20.0042 -57.8237 -7.45971 -11.2147 -120.333 -16.8231 -3.65606 13.9245 -103.357 -58.5401 62.4731 1.31388 -57.7205 -7.5156 -6.54945 22.8655 -113.608 14.1115 1.28806 3.70428 -24.8364 13.4226 17.5608 -0.733872 15.3506 9.60005 
85.7093 90.9861 38.9549 -95.2884 -51.119 -96.0763 -172.577 20.5313 98.5299 -27.8029 17.6183 -3.47505 59.1518 -2.98329 7.48549 30.6423 -2.82601 8.20198 168.354 5.17597 82.5503 -29.1248 0.798727 0.108745 72.7425 -10.4543 -10.6132 38.8009 -5.28529 -0.909787 0.778668 7.75844 -89.6096 11.3529 1.73156 0.603864 -0.316962 1.75647 0.527052 -22.8581 1.47001 1.09644 -2.84545 1.47002 1.09643 94.3199 -41.3487 -95.6327 26.1601 -19.7948 -58.0274 -7.12325 -11.4405 -120.374 -17.0064 -3.73101 13.9509 -103.533 -58.6148 62.2679 2.54049 -57.6373 -6.83613 -7.02626 22.9611 -113.235 15.1706 1.45458 4.0695 -24.3911 13.455 17.7809 -1.02197 15.2877 9.1921 
85.6304 90.8368 39.2608 -95.2546 -51.4469 -95.8439 -172.461 21.3026 98.5657 -29.3122 18.3689 -3.42269 59.4523 -2.32888 7.87283 30.9276 -2.91075 8.93832 168.314 5.06239 82.6025 -29.4223 0.936054 0.179937 72.7662 -10.1887 -10.5915 39.3398 -5.60467 -0.799318 0.768312 7.73909 -89.6156 11.3918 1.70812 0.593535 -0.278166 1.73261 0.517749 -22.8191 1.45078 1.07953 -2.80651 1.45079 1.07953 94.4361 -41.3007 -95.4411 26.186 -20.1165 -57.829 -7.37201 -11.0358 -120.558 -16.6411 -3.58827 14.1227 -103.214 -58.4232 62.621 2.11662 -57.383 -6.98575 -6.72474 22.8129 -113.262 14.676 1.38566 3.76856 -24.4463 13.3492 17.723 -0.849036 15.1936 9.01069 
85.6582 90.5116 39.7284 -95.5966 -52.1217 -96.048 -172.363 22.4035 98.379 -31.9433 19.5856 -3.29617 59.8864 -1.37089 7.85864 31.7045 -2.35684 9.84753 168.2 4.72473 82.4972 -29.7756 1.93396 0.0783224 73.3588 -10.4939 -10.4163 39.685 -5.77874 -0.854125 0.711382 7.75004 -89.6358 11.3703 1.58541 0.566103 -0.299764 1.60881 0.495765 -22.8399 1.34199 1.01648 -2.8272 1.342 1.01648 94.5286 -41.1019 -95.3178 26.0604 -20.2848 -57.7585 -7.54991 -10.7644 -120.472 -16.7566 -3.62168 13.5699 -103.536 -58.6051 62.2611 2.57538 -57.144 -6.73397 -7.06005 22.7768 -113.367 13.5598 1.14397 4.30136 -24.5057 12.9786 17.893 -0.605155 14.8478 8.54199 
85.7937 90.1097 40.3914 -95.3766 -52.4071 -95.8139 -171.929 24.1432 98.3115 -35.2633 22.1097 -3.40819 60.0524 -0.975545 8.94123 32.5591 -1.46752 10.4751 168.225 5.05249 82.1897 -30.8876 1.42781 -0.0635551 73.873 -10.5768 -10.6979 40.2637 -5.89444 -1.72958 0.693724 7.73617 -89.6371 11.3981 1.54975 0.566579 -0.272041 1.5732 0.497813 -22.8119 1.30781 1.00621 -2.79921 1.30784 1.00621 94.4613 -41.2015 -95.4159 25.6101 -20.0025 -57.9211 -7.40823 -11.0432 -120.779 -17.9834 -4.13563 14.2913 -103.369 -58.5413 62.4575 2.81842 -56.9686 -6.91316 -7.30242 22.7564 -113.144 13.8457 1.21304 4.08702 -23.7352 13.7967 16.8905 -2.13773 15.3965 10.5363 
85.944 89.6547 41.3548 -95.8904 -53.2574 -95.9941 -171.499 26.1953 98.3336 -39.9111 23.7853 -3.17807 60.443 -0.0638713 8.61547 33.0796 -1.10039 11.1319 167.956 4.33946 81.9286 -31.173 3.04741 -0.151176 74.5669 -10.645 -9.86377 40.8838 -6.14742 -2.12869 0.614905 7.76276 -89.6322 11.3449 1.39513 0.592854 -0.325396 1.41987 0.530866 -22.8639 1.15244 0.984771 -2.85122 1.15243 0.984757 94.4707 -41.5272 -95.3399 25.669 -19.765 -57.5414 -7.05903 -11.2136 -120.928 -17.9926 -4.13195 14.1344 -103.204 -58.0662 62.5053 1.69473 -56.2738 -7.17513 -6.34285 22.0898 -114.159 13.477 1.12176 4.40255 -23.9817 12.6215 16.722 -0.716326 14.3019 8.72277 
86.1911 89.2939 42.5308 -95.9376 -53.5803 -95.8683 -171.199 28.1076 98.5067 -42.8195 24.1904 -3.05606 61.0711 0.992882 9.19369 34.2595 0.587248 11.3544 167.697 3.84765 81.2452 -31.3511 3.28869 -0.415438 74.7991 -10.7153 -8.44097 42.2219 -6.98445 -1.66834 0.589349 7.76336 -89.6322 11.343 1.34436 0.5981 -0.327414 1.36936 0.53834 -22.8655 1.10246 0.974502 -2.85282 1.10245 0.974504 94.9522 -41.6978 -94.4781 24.9484 -20.005 -57.4355 -7.07433 -10.554 -121.029 -17.607 -3.96462 13.7261 -103.464 -58.0414 62.1507 1.4287 -55.0874 -7.29807 -6.09219 21.2001 -114.789 13.1153 0.981447 5.32789 -23.5702 12.0297 16.2388 -0.849418 13.5712 7.6948 
86.4701 89.005 43.775 -95.4053 -52.9312 -95.5041 -171.838 29.084 99.4618 -42.2326 21.8342 -2.56381 61.0804 1.02754 8.84406 35.7545 2.58231 11.8605 168.503 2.60653 80.5828 -29.8572 2.94888 -2.21185 74.7252 -10.9902 -5.65887 45.5543 -9.25399 1.27258 0.698742 7.73344 -89.4029 11.4008 1.66908 1.02088 -0.269405 1.71239 0.946409 -22.8071 1.28512 1.4753 -2.79442 1.28513 1.4753 95.8884 -44.342 -92.4952 22.5771 -20.3284 -56.8911 -6.42004 -9.49211 -121.994 -17.7732 -4.03496 13.8189 -100.219 -55.2961 65.5685 -2.30426 -53.3249 -9.81746 -5.52435 21.2621 -114.583 11.9608 0.682301 6.20232 -23.1157 11.6072 9.26767 -1.13139 12.7276 12.2986 
